<svg id="visual" viewBox="0 0 1280 720" width="1280" height="720" xmlns="http://www.w3.org/2000/svg" xmlns:xlink="http://www.w3.org/1999/xlink" version="1.1"><rect x="0" y="0" width="1280" height="720" fill="#001220"></rect><path d="M0 482L30.5 471.8C61 461.7 122 441.3 183 446.7C244 452 305 483 366 500.8C427 518.7 488 523.3 548.8 510.2C609.7 497 670.3 466 731.2 466.2C792 466.3 853 497.7 914 511.2C975 524.7 1036 520.3 1097 517.7C1158 515 1219 514 1249.5 513.5L1280 513L1280 721L1249.5 721C1219 721 1158 721 1097 721C1036 721 975 721 914 721C853 721 792 721 731.2 721C670.3 721 609.7 721 548.8 721C488 721 427 721 366 721C305 721 244 721 183 721C122 721 61 721 30.5 721L0 721Z" fill="#fa7268"></path><path d="M0 557L30.5 552C61 547 122 537 183 530.2C244 523.3 305 519.7 366 523.8C427 528 488 540 548.8 542.7C609.7 545.3 670.3 538.7 731.2 533.5C792 528.3 853 524.7 914 531.5C975 538.3 1036 555.7 1097 547.8C1158 540 1219 507 1249.5 490.5L1280 474L1280 721L1249.5 721C1219 721 1158 721 1097 721C1036 721 975 721 914 721C853 721 792 721 731.2 721C670.3 721 609.7 721 548.8 721C488 721 427 721 366 721C305 721 244 721 183 721C122 721 61 721 30.5 721L0 721Z" fill="#ef5f67"></path><path d="M0 561L30.5 566.8C61 572.7 122 584.3 183 585.2C244 586 305 576 366 565.7C427 555.3 488 544.7 548.8 538C609.7 531.3 670.3 528.7 731.2 532C792 535.3 853 544.7 914 550.3C975 556 1036 558 1097 554.2C1158 550.3 1219 540.7 1249.5 535.8L1280 531L1280 721L1249.5 721C1219 721 1158 721 1097 721C1036 721 975 721 914 721C853 721 792 721 731.2 721C670.3 721 609.7 721 548.8 721C488 721 427 721 366 721C305 721 244 721 183 721C122 721 61 721 30.5 721L0 721Z" fill="#e34c67"></path><path d="M0 619L30.5 620.5C61 622 122 625 183 626.2C244 627.3 305 626.7 366 618.3C427 610 488 594 548.8 594.3C609.7 594.7 670.3 611.3 731.2 617.3C792 623.3 853 618.7 914 620C975 621.3 1036 628.7 1097 633.7C1158 638.7 1219 641.3 1249.5 642.7L1280 644L1280 721L1249.5 721C1219 721 1158 721 1097 721C1036 721 975 721 914 721C853 721 792 721 731.2 721C670.3 721 609.7 721 548.8 721C488 721 427 721 366 721C305 721 244 721 183 721C122 721 61 721 30.5 721L0 721Z" fill="#d53867"></path><path d="M0 685L30.5 680.5C61 676 122 667 183 663C244 659 305 660 366 659.7C427 659.3 488 657.7 548.8 652.7C609.7 647.7 670.3 639.3 731.2 644.8C792 650.3 853 669.7 914 678.5C975 687.3 1036 685.7 1097 679.8C1158 674 1219 664 1249.5 659L1280 654L1280 721L1249.5 721C1219 721 1158 721 1097 721C1036 721 975 721 914 721C853 721 792 721 731.2 721C670.3 721 609.7 721 548.8 721C488 721 427 721 366 721C305 721 244 721 183 721C122 721 61 721 30.5 721L0 721Z" fill="#c62368"></path></svg>